<svg width="30" height="28" viewBox="0 0 30 28" fill="none" xmlns="http://www.w3.org/2000/svg">
<path fill-rule="evenodd" clip-rule="evenodd" d="M29.8156 3.99268C30.2394 1.92632 28.2098 0.209131 26.2422 0.969358L2.12331 10.288C-0.0739976 11.137 -0.171904 14.2096 1.96689 15.1967L7.21931 17.621L9.71797 26.3662C9.84775 26.8204 10.2082 27.1722 10.6655 27.2907C11.1229 27.4091 11.6088 27.2768 11.9428 26.9427L15.7917 23.0938L21.1833 27.1375C22.7484 28.3112 25.0025 27.4563 25.3956 25.5399L29.8156 3.99268ZM3.08438 12.7755L27.2033 3.45682L22.7833 25.0042L16.4666 20.2666C15.9358 19.8684 15.193 19.9212 14.7238 20.3904L13.0753 22.039L13.5706 19.3148L23.2761 9.6094C23.7485 9.13706 23.7984 8.3881 23.3929 7.85726C22.9874 7.32641 22.2518 7.17752 21.6718 7.50893L8.2683 15.168L3.08438 12.7755ZM9.90258 17.3055L10.7111 20.1354L11.0215 18.428C11.07 18.1612 11.1988 17.9155 11.3905 17.7238L14.3504 14.764L9.90258 17.3055Z" stroke="#F0E3CA"/>
</svg>
