<svg width="15" height="15" viewBox="0 0 15 15" fill="none" xmlns="http://www.w3.org/2000/svg">
<path d="M14.4232 0.207768C14.2838 0.115586 14.128 0.0522901 13.9646 0.0214962C13.8012 -0.00929776 13.6334 -0.00698625 13.4709 0.0282986C13.3084 0.0635834 13.1543 0.13115 13.0174 0.227139C12.8805 0.323128 12.7635 0.445658 12.6731 0.58773L5.5824 11.7248L2.12436 8.46679C2.00235 8.35184 1.85932 8.2625 1.70344 8.20387C1.54755 8.14525 1.38185 8.11848 1.21582 8.12511C0.880488 8.13849 0.56411 8.28706 0.336282 8.53814C0.108454 8.78921 -0.0121614 9.12223 0.000970125 9.46392C0.0141017 9.80561 0.159904 10.128 0.406303 10.3601L4.94672 14.6377C4.94672 14.6377 5.07706 14.7521 5.13738 14.792C5.27678 14.8843 5.43266 14.9476 5.5961 14.9785C5.75955 15.0093 5.92735 15.007 6.08992 14.9717C6.25249 14.9364 6.40665 14.8688 6.54357 14.7728C6.6805 14.6768 6.79751 14.5542 6.88791 14.4121L14.7961 1.9911C14.8866 1.84906 14.9487 1.69026 14.9789 1.52376C15.0091 1.35726 15.0069 1.18632 14.9722 1.02072C14.9376 0.855109 14.8713 0.698076 14.7771 0.558588C14.6829 0.4191 14.5626 0.29989 14.4232 0.207768Z" fill="#31373D"/>
</svg>
